<svg id="Layer_1" data-name="Layer 1" xmlns="http://www.w3.org/2000/svg" viewBox="0 0 1179.19 736.88"><defs><style>.cls-1{fill:#00aeef;}.cls-2{fill:#00de91;}.cls-3{fill:none;stroke:#000;stroke-miterlimit:10;stroke-width:2px;}.cls-4{fill:#ffed24;}</style></defs><title>confetti</title><polygon class="cls-1" points="809.43 456.06 810.93 472.28 796.14 465.47 809.43 456.06"/><path d="M806.24,457.67l.86,9.32-8.5-3.91,7.64-5.41m1.67-3.63-13.3,9.41,14.8,6.81L807.91,454Z"/><polygon class="cls-1" points="475.98 48.55 491.72 49.42 483.1 62.63 475.98 48.55"/><path d="M477.17,51.91l8.83.49-4.84,7.4-4-7.89m-3.35-2.19,7.12,14.07,8.63-13.2-15.75-.87Z"/><polygon class="cls-1" points="420.03 231.93 422.19 255.26 400.91 245.47 420.03 231.93"/><path d="M416.17,232.65l1.52,16.43-15-6.9,13.47-9.53m1.67-3.63-19.12,13.53L420,252.35,417.85,229Z"/><polygon class="cls-1" points="383.71 423.28 398.68 441.3 375.58 445.25 383.71 423.28"/><path d="M380.94,426.05l10.54,12.69-16.26,2.78,5.72-15.47m-.67-3.94-8.13,22,23.09-3.95-15-18Z"/><polygon class="cls-1" points="580.93 459.82 583.09 483.15 561.81 473.35 580.93 459.82"/><path d="M577.08,460.54,578.6,477l-15-6.9,13.47-9.53m1.67-3.63-19.12,13.53,21.28,9.79-2.16-23.33Z"/><polygon class="cls-1" points="169.61 156.75 181.99 167.9 166.14 173.04 169.61 156.75"/><path d="M168.3,160.08l7.23,6.51-9.26,3,2-9.52m-1.24-3.8-3.47,16.3,15.85-5.15-12.38-11.15Z"/><polygon class="cls-1" points="126.61 366.75 138.99 377.9 123.14 383.05 126.61 366.75"/><path d="M125.3,370.08l7.23,6.51-9.26,3,2-9.52m-1.24-3.8-3.47,16.3,15.85-5.15-12.38-11.15Z"/><polygon class="cls-1" points="672.03 377 675.15 393.36 659.41 387.88 672.03 377"/><path d="M668.24,378.13l1.82,9.56-9.19-3.2,7.37-6.36m1.32-3.78-12.61,10.89,15.73,5.48-3.12-16.37Z"/><polygon class="cls-1" points="731.36 21.9 749.88 28.53 734.88 41.25 731.36 21.9"/><path d="M731,25.58l12,4.29-9.72,8.24L731,25.58m-2.59-3.05,3.52,19.35,15-12.73-18.52-6.63Z"/><polygon class="cls-1" points="675.25 179.82 678.81 199.17 660.28 192.58 675.25 179.82"/><path d="M671.87,181.32l2.31,12.53-12-4.27,9.7-8.26m1.34-3.77-15,12.76,18.53,6.59-3.56-19.34Z"/><polygon class="cls-1" points="91.98 449.96 108 454.56 96.01 466.13 91.98 449.96"/><path d="M91.61,453.85l9.36,2.69-7,6.76-2.35-9.45M88.83,451l4,16.17,12-11.57-16-4.6Z"/><polygon class="cls-1" points="351.98 149.96 368 154.56 356.01 166.13 351.98 149.96"/><path d="M351.61,153.85l9.36,2.69-7,6.76-2.35-9.45M348.83,151l4,16.17,12-11.57-16-4.6Z"/><polygon class="cls-1" points="506.92 113.73 519.3 124.88 503.45 130.03 506.92 113.73"/><path d="M504.88,117.07l7.23,6.51-9.26,3,2-9.52m-1.24-3.8-3.47,16.3L516,124.41l-12.38-11.15Z"/><polygon class="cls-1" points="217.87 307.79 230.25 318.94 214.41 324.08 217.87 307.79"/><path d="M215.83,311.12l7.23,6.51-9.26,3,2-9.52m-1.24-3.8-3.47,16.3L227,318.47,214.6,307.32Z"/><path class="cls-2" d="M257.64,175.26q.34-.47.65-1c3.42-5.58,3.78-14,3.78-14l-7-2.08s-.36,8.42-3.78,14q-.31.5-.65,1Z"/><path class="cls-3" d="M256.27,173.41q.34-.47.65-1c3.42-5.58,3.78-14,3.78-14l-7-2.08s-.36,8.42-3.78,14q-.31.5-.65,1Z"/><path class="cls-2" d="M418.12,390.68q.74,0,1.5,0c8.39-.54,17.5-6.38,17.5-6.38l-3-8.94s-9.11,5.85-17.5,6.38q-.75,0-1.5,0Z"/><path class="cls-3" d="M419,387.88q.74,0,1.5,0c8.39-.54,17.5-6.38,17.5-6.38l-3-8.94s-9.11,5.85-17.5,6.38q-.75,0-1.5,0Z"/><path class="cls-2" d="M530.8,580.26q.7-.26,1.38-.58c7.62-3.56,14-12.33,14-12.33l-6.08-7.22s-6.34,8.77-14,12.33q-.68.32-1.38.58Z"/><path class="cls-3" d="M530.64,577.32q.7-.26,1.38-.58c7.62-3.56,14-12.33,14-12.33l-6.08-7.22s-6.34,8.77-14,12.33q-.68.32-1.38.58Z"/><path class="cls-2" d="M228,80.49q.74,0,1.5,0c8.39-.54,17.5-6.38,17.5-6.38l-3-8.94s-9.11,5.85-17.5,6.38q-.75,0-1.5,0Z"/><path class="cls-3" d="M228.88,77.69q.74,0,1.5,0c8.39-.54,17.5-6.38,17.5-6.38l-3-8.94s-9.11,5.85-17.5,6.38q-.75,0-1.5,0Z"/><path class="cls-2" d="M628.87,62.67q-.15-.73-.36-1.45c-2.36-8.07-10.06-15.67-10.06-15.67l-8.06,4.91s7.7,7.6,10.06,15.67q.21.73.36,1.45Z"/><path class="cls-3" d="M625.93,62.38q-.15-.73-.36-1.45c-2.36-8.07-10.06-15.67-10.06-15.67l-8.06,4.91s7.7,7.6,10.06,15.67q.21.73.36,1.45Z"/><path class="cls-2" d="M761.93,280.85q.74-.09,1.48-.25c8.23-1.71,16.42-8.79,16.42-8.79l-4.25-8.42s-8.19,7.07-16.42,8.79q-.74.15-1.48.25Z"/><path class="cls-3" d="M762.45,277.94q.74-.09,1.48-.25c8.23-1.71,16.42-8.79,16.42-8.79l-4.25-8.42s-8.19,7.07-16.42,8.79q-.74.15-1.48.25Z"/><circle class="cls-4" cx="585.87" cy="211.17" r="6.9"/><circle class="cls-3" cx="582.88" cy="209.46" r="6.12"/><circle class="cls-4" cx="254.87" cy="443.17" r="6.9"/><circle class="cls-3" cx="251.88" cy="441.46" r="6.12"/><circle class="cls-4" cx="484.87" cy="316.17" r="6.9"/><circle class="cls-3" cx="481.88" cy="314.46" r="6.12"/><circle class="cls-4" cx="169.87" cy="535.17" r="6.9"/><circle class="cls-3" cx="166.88" cy="533.46" r="6.12"/><circle class="cls-4" cx="399.57" cy="671.28" r="6.9"/><circle class="cls-3" cx="396.57" cy="669.56" r="6.12"/><circle class="cls-4" cx="815.22" cy="33.52" r="6.9"/><circle class="cls-3" cx="812.22" cy="31.81" r="6.12"/><circle class="cls-4" cx="345.76" cy="64.05" r="6.9"/><circle class="cls-3" cx="342.76" cy="62.34" r="6.12"/><circle class="cls-4" cx="200.76" cy="249.05" r="6.9"/><circle class="cls-3" cx="197.76" cy="247.34" r="6.12"/><circle class="cls-4" cx="10.11" cy="390.86" r="6.9" transform="translate(-380.77 400) rotate(-89.86)"/><circle class="cls-3" cx="7.12" cy="389.14" r="6.12" transform="translate(-382.04 395.29) rotate(-89.86)"/><circle class="cls-4" cx="183.19" cy="619.77" r="4.5" transform="translate(-437.03 801.42) rotate(-89.86)"/><circle class="cls-3" cx="181.23" cy="618.64" r="3.99" transform="translate(-437.86 798.34) rotate(-89.86)"/><polygon class="cls-1" points="348.51 529.23 349.78 542.89 337.31 537.16 348.51 529.23"/><path d="M345.56,531.16l.63,6.76L340,535.08l5.54-3.92m1.67-3.63L336,535.45l12.46,5.73-1.26-13.66Z"/><polygon class="cls-1" points="702.36 598.9 720.88 605.53 705.88 618.25 702.36 598.9"/><path d="M702,602.58l12,4.29-9.72,8.24L702,602.58m-2.59-3.05,3.52,19.35,15-12.73-18.52-6.63Z"/><polygon class="cls-1" points="602.92 636.73 615.3 647.88 599.45 653.03 602.92 636.73"/><path d="M600.88,640.07l7.23,6.51-9.26,3,2-9.52m-1.24-3.8-3.47,16.3L612,647.41l-12.38-11.15Z"/><path class="cls-2" d="M309,619.38q.32-.43.6-.9c3.18-5.18,3.51-13,3.51-13l-6.54-1.94s-.33,7.82-3.51,13q-.29.47-.6.9Z"/><path class="cls-3" d="M307.73,617.67q.32-.43.6-.9c3.18-5.18,3.51-13,3.51-13l-6.54-1.94s-.33,7.82-3.51,13q-.29.47-.6.9Z"/><path class="cls-2" d="M529.87,730.67q-.15-.73-.36-1.45c-2.36-8.07-10.06-15.67-10.06-15.67l-8.06,4.91s7.7,7.6,10.06,15.67q.21.73.36,1.45Z"/><path class="cls-3" d="M526.93,730.38q-.15-.73-.36-1.45c-2.36-8.07-10.06-15.67-10.06-15.67l-8.06,4.91s7.7,7.6,10.06,15.67q.21.73.36,1.45Z"/><circle class="cls-4" cx="739.22" cy="708.52" r="6.9"/><circle class="cls-3" cx="736.22" cy="706.81" r="6.12"/><circle class="cls-4" cx="246.2" cy="698.92" r="5.61"/><circle class="cls-3" cx="248.64" cy="700.31" r="4.97"/><polygon class="cls-1" points="1020.44 421.09 1043.76 418.93 1033.97 440.21 1020.44 421.09"/><path d="M1037.58,423.43l-6.9,15-9.53-13.47,16.43-1.52m3.26-2.31-23.33,2.16,13.53,19.12,9.79-21.28Z"/><polygon class="cls-1" points="435.44 563.09 458.76 560.93 448.97 582.21 435.44 563.09"/><path d="M452.58,565.43l-6.9,15-9.53-13.47,16.43-1.52m3.26-2.31-23.33,2.16,13.53,19.12,9.79-21.28Z"/><polygon class="cls-1" points="88.51 274.6 77.36 286.98 72.21 271.13 88.51 274.6"/><path d="M75.65,271.26l9.52,2-6.51,7.23-3-9.26m-3-2.68,5.15,15.85L89,272.05l-16.3-3.47Z"/><polygon class="cls-1" points="886.41 69.76 893.03 51.24 905.76 66.24 886.41 69.76"/><path d="M894.38,58.16l8.24,9.72-12.54,2.28,4.29-12m-.72-3.94L887,72.75l19.35-3.52-12.73-15Z"/><polygon class="cls-1" points="989.54 221.29 1000.69 208.91 1005.83 224.76 989.54 221.29"/><path d="M999.39,216.1l3,9.26-9.52-2,6.51-7.23m.83-3.91-11.15,12.38,16.3,3.47-5.15-15.85Z"/><polygon class="cls-1" points="780.54 353.29 791.69 340.91 796.83 356.76 780.54 353.29"/><path d="M790.39,348.1l3,9.26-9.52-2,6.51-7.23m.83-3.91-11.15,12.38,16.3,3.47-5.15-15.85Z"/><polygon class="cls-1" points="882.24 334.2 893.39 321.82 898.53 337.67 882.24 334.2"/><path d="M892.09,329l3,9.26-9.52-2,6.51-7.23m.83-3.91-11.15,12.38,16.3,3.47-5.15-15.85Z"/><polygon class="cls-1" points="941.29 666.25 952.44 653.87 957.59 669.71 941.29 666.25"/><path d="M951.14,661.05l3,9.26-9.52-2,6.51-7.23m.83-3.91-11.15,12.38,16.3,3.47L952,657.14Z"/><path class="cls-2" d="M1082.87,518.18q-.42-.31-.87-.58c-5-3.08-12.61-3.41-12.61-3.41l-1.88,6.35s7.58.32,12.61,3.41q.45.28.87.58Z"/><path class="cls-3" d="M1081.21,519.41q-.42-.31-.87-.58c-5-3.08-12.61-3.41-12.61-3.41l-1.88,6.35s7.58.32,12.61,3.41q.45.28.87.58Z"/><path class="cls-2" d="M922.87,449.18q-.42-.31-.87-.58c-5-3.08-12.61-3.41-12.61-3.41l-1.88,6.35s7.58.32,12.61,3.41q.45.28.87.58Z"/><path class="cls-3" d="M921.21,450.41q-.42-.31-.87-.58c-5-3.08-12.61-3.41-12.61-3.41l-1.88,6.35s7.58.32,12.61,3.41q.45.28.87.58Z"/><path class="cls-2" d="M1112.19,365q0-.74,0-1.5c-.54-8.39-6.38-17.5-6.38-17.5l-8.94,3s5.85,9.11,6.38,17.5q0,.75,0,1.5Z"/><path class="cls-3" d="M1109.39,364.08q0-.74,0-1.5c-.54-8.39-6.38-17.5-6.38-17.5l-8.94,3s5.85,9.11,6.38,17.5q0,.75,0,1.5Z"/><path class="cls-2" d="M996,341.14q.63-.39,1.24-.84c6.77-5,11.28-14.82,11.28-14.82l-7.37-5.89s-4.51,9.84-11.28,14.82q-.61.45-1.24.84Z"/><path class="cls-3" d="M995.27,338.29q.63-.39,1.24-.84c6.77-5,11.28-14.82,11.28-14.82l-7.37-5.89s-4.51,9.84-11.28,14.82q-.61.45-1.24.84Z"/><path class="cls-2" d="M322.19,358q0-.74,0-1.5c-.54-8.39-6.38-17.5-6.38-17.5l-8.94,3s5.85,9.11,6.38,17.5q0,.75,0,1.5Z"/><path class="cls-3" d="M319.39,357.08q0-.74,0-1.5c-.54-8.39-6.38-17.5-6.38-17.5l-8.94,3s5.85,9.11,6.38,17.5q0,.75,0,1.5Z"/><path class="cls-2" d="M834,656.16q0-.74,0-1.5c-.54-8.39-6.38-17.5-6.38-17.5l-8.94,3s5.85,9.11,6.38,17.5q0,.75,0,1.5Z"/><path class="cls-3" d="M831.19,655.24q0-.74,0-1.5c-.54-8.39-6.38-17.5-6.38-17.5l-8.94,3s5.85,9.11,6.38,17.5q0,.75,0,1.5Z"/><path class="cls-2" d="M836.17,165.25q-.73.15-1.45.36C826.64,168,819,175.68,819,175.68l4.91,8.06s7.6-7.7,15.67-10.06q.73-.21,1.45-.36Z"/><path class="cls-3" d="M835.88,168.19q-.73.15-1.45.36c-8.07,2.36-15.67,10.06-15.67,10.06l4.91,8.06s7.6-7.7,15.67-10.06q.73-.21,1.45-.36Z"/><circle class="cls-4" cx="769.67" cy="128.25" r="6.9"/><circle class="cls-3" cx="767.96" cy="131.25" r="6.12"/><circle class="cls-4" cx="562.67" cy="379.25" r="6.9"/><circle class="cls-3" cx="560.96" cy="382.25" r="6.12"/><circle class="cls-4" cx="918.78" cy="569.55" r="6.9"/><circle class="cls-3" cx="917.07" cy="572.55" r="6.12"/><circle class="cls-4" cx="914.02" cy="180.9" r="6.9"/><circle class="cls-3" cx="912.31" cy="183.9" r="6.12"/><circle class="cls-4" cx="543.02" cy="6.9" r="6.9"/><circle class="cls-3" cx="541.31" cy="9.9" r="6.12"/><circle class="cls-4" cx="736.56" cy="510.36" r="6.9"/><circle class="cls-3" cx="734.84" cy="513.36" r="6.12"/></svg>