<svg id="Layer_1" data-name="Layer 1" xmlns="http://www.w3.org/2000/svg" xmlns:xlink="http://www.w3.org/1999/xlink" viewBox="0 0 602.53 379.5"><defs><style>.cls-1,.cls-7,.cls-9{fill:none;}.cls-2{fill:#f5c157;}.cls-3{fill:#fb5a40;}.cls-4{fill:#96d8d7;}.cls-5{clip-path:url(#clip-path);}.cls-6{fill:#fc8b79;}.cls-7,.cls-9{stroke:#000;stroke-miterlimit:10;}.cls-7{stroke-width:4px;}.cls-8{clip-path:url(#clip-path-2);}.cls-9{stroke-width:3px;}</style><clipPath id="clip-path"><polygon class="cls-1" points="502.66 229.78 369.02 277.07 335.07 192.58 467.94 147.87 502.66 229.78"/></clipPath><clipPath id="clip-path-2"><polygon class="cls-1" points="499.48 230.06 365.75 277.13 331.96 192.58 464.9 148.1 499.48 230.06"/></clipPath></defs><title>cracker1</title><polyline class="cls-2" points="309.75 149.37 346.75 85.56 541.08 16.69 527.77 36.83 519.88 48.78 533.49 53.23 556.44 60.72 543.13 80.85 535.24 92.81 548.86 97.25 571.8 104.74 558.5 124.88 550.6 136.83 564.22 141.27 587.17 148.76 573.86 168.9 565.96 180.85 579.58 185.29 602.53 192.78 407.96 260.95 339.88 235.07"/><polyline class="cls-3" points="253.27 162.22 292.58 95.23 498.14 22.39 484.01 43.54 475.63 56.09 490 60.7 514.23 68.47 500.1 89.62 491.71 102.17 506.09 106.78 530.31 114.55 516.18 135.71 507.79 148.26 522.17 152.87 546.39 160.64 532.26 181.79 523.88 194.34 538.25 198.96 562.47 206.72 356.66 278.83 284.81 251.94"/><rect class="cls-3" x="27.9" y="161.91" width="176.92" height="194.29" rx="3" ry="3" transform="translate(-78.86 52.8) rotate(-19.24)"/><rect class="cls-2" x="244.96" y="156.47" width="28.84" height="105.69" rx="14.42" ry="14.42" transform="translate(-54.48 97.15) rotate(-19.24)"/><path class="cls-3" d="M261.38,260.08l-28,59.58c-.49,1-1.84.7-2.28-.58L169.4,142.27c-.47-1.34.48-2.46,1.54-1.81l62,38a1.92,1.92,0,0,1,.77,1l27.65,79.23A1.87,1.87,0,0,1,261.38,260.08Z"/><line class="cls-3" x1="112.24" y1="158.5" x2="176.25" y2="341.94"/><line class="cls-3" x1="45.68" y1="181.67" x2="109.7" y2="365.11"/><line class="cls-3" x1="296.79" y1="94.1" x2="360.81" y2="277.54"/><rect class="cls-4" x="77.49" y="162.11" width="76.29" height="191.09" transform="translate(309.7 462.82) rotate(160.76)"/><g class="cls-5"><polygon class="cls-4" points="371.1 242.8 378.86 249.11 390.78 234.46 418.39 238.9 400.74 260.59 382.09 257.6 380.5 267.47 393.45 269.55 384.77 280.23 392.52 286.54 401.21 275.86 405.88 288.12 415.23 284.56 408.5 266.9 426.15 245.21 436.11 271.34 424.19 286 431.95 292.31 440.22 282.13 445.13 294.99 454.47 291.43 449.57 278.57 462.52 280.65 464.1 270.78 445.45 267.78 435.49 241.65 463.11 246.09 469.83 263.74 479.18 260.18 474.51 247.92 488.09 250.11 489.68 240.23 476.09 238.05 484.37 227.88 476.61 221.56 464.69 236.22 437.08 231.78 454.73 210.08 473.38 213.08 474.97 203.21 462.02 201.13 470.7 190.45 462.95 184.14 454.26 194.82 449.59 182.56 440.25 186.12 446.97 203.77 429.32 225.47 419.36 199.33 431.28 184.68 423.52 178.37 415.25 188.54 410.35 175.68 401 179.25 405.9 192.11 392.96 190.02 391.37 199.9 410.02 202.9 419.98 229.03 392.37 224.59 385.64 206.94 376.3 210.5 380.97 222.76 367.38 220.57 365.79 230.44 379.38 232.63 371.1 242.8"/></g><path class="cls-6" d="M475.35,80.41,459,76.88l7.06-7.79L460.38,64l-7.05,7.79-5.12-15.92L437,68.22l-3.22-10-7.29,2.34,3.22,10L413.35,67l5.12,15.92L408.2,80.73l-1.61,7.48,10.27,2.22-11.23,12.39L422,106.35l-7.05,7.79,5.67,5.14,7.06-7.79,5.12,15.92L444,115l3.22,10,7.29-2.34-3.22-10,16.35,3.53-5.12-15.92,10.27,2.22L474.39,95,464.12,92.8Zm-14.57,4.68-5.29,5.84-7.71-1.66,5.29-5.84ZM445,70.78l2.41,7.51-5.3,5.84-2.41-7.51Zm-20.29,6.52L432.4,79l2.41,7.51-7.71-1.66Zm-4.5,20.83,5.29-5.84L433.2,94l-5.3,5.84ZM436,112.45l-2.41-7.51,5.29-5.84,2.41,7.51Zm20.29-6.52-7.71-1.66-2.41-7.51,7.71,1.66Z"/><rect class="cls-7" x="28.7" y="155.74" width="176.95" height="199.28" rx="3" ry="3" transform="translate(-76.41 51.73) rotate(-18.9)"/><path class="cls-7" d="M262.81,257.45l-28.5,60.75c-.5,1.06-1.86.7-2.31-.61L169.76,135.86c-.47-1.38.49-2.51,1.56-1.84l62.85,39.55a2,2,0,0,1,.78,1L262.84,256A1.93,1.93,0,0,1,262.81,257.45Z"/><line class="cls-7" x1="147.59" y1="352.7" x2="83.04" y2="164.17"/><polyline class="cls-7" points="255.67 155.91 295.8 87.64 504.88 14.91 490.47 36.45 481.91 49.23 496.51 54.09 521.1 62.27 506.69 83.81 498.13 96.6 512.73 101.45 537.32 109.64 522.9 131.18 514.35 143.96 528.95 148.82 553.54 157 539.12 178.54 530.57 191.33 545.16 196.18 569.76 204.37 360.41 276.34 287.47 248.12"/><line class="cls-7" x1="296.71" y1="88.22" x2="361.27" y2="276.75"/><rect class="cls-7" x="246.85" y="150.97" width="29.58" height="108.41" rx="14.79" ry="14.79" transform="translate(-52.36 95.83) rotate(-18.9)"/><g class="cls-8"><path d="M406.1,178.39l4.17,11,1.23,3.24,2.19-2.68,7-8.61,4.65,3.79-10.68,13.08-.73.89.41,1.08,9.92,26.15,1.23,3.24,2.19-2.68,17.69-21.66.73-.89-.41-1.08-6-15.79,5.61-2.13,3.94,10.39L450.5,199l2.19-2.68,7.44-9.11,4.65,3.79-7.44,9.11-2.19,2.68,3.42.56,11,1.78-1,5.92-16.67-2.71-1.14-.19L450,209l-17.69,21.66-2.19,2.68,3.42.56,27.6,4.49,1.14.19.73-.89,10.68-13.08,4.65,3.79-7,8.61-2.19,2.68,3.42.56,11.61,1.89-1,5.92-11.61-1.89-3.42-.56,1.23,3.24,3.94,10.39-5.61,2.13-6-15.79-.41-1.08-1.14-.19-27.6-4.49-3.42-.56,1.23,3.24,9.92,26.15.41,1.08,1.14.19,16.67,2.71-1,5.92-11-1.78-3.42-.56,1.23,3.24,4.17,11L443,292.6l-4.17-11-1.23-3.24L435.4,281l-7,8.61-4.65-3.79,10.68-13.08.73-.89-.41-1.08-9.92-26.15-1.23-3.24-2.19,2.68L403.7,265.76l-.73.89.41,1.08,6,15.79-5.61,2.13-3.94-10.39L398.59,272l-2.19,2.68L389,283.82,384.31,280l7.44-9.11,2.19-2.68-3.42-.56-11-1.78,1-5.92,16.67,2.71,1.14.19.73-.89,17.69-21.66,2.19-2.68-3.42-.56-27.6-4.49-1.14-.19-.73.89-10.68,13.08-4.65-3.79,7-8.61,2.19-2.68-3.42-.56-11.61-1.89,1-5.92,11.61,1.89,3.42.56-1.23-3.24-3.94-10.39,5.61-2.13,6,15.79.41,1.08,1.14.19,27.6,4.49,3.42.56-1.23-3.24-9.92-26.15-.41-1.08L407.2,201l-16.67-2.71,1-5.92,11,1.78,3.42.56-1.23-3.24-4.17-11,5.61-2.13m1.16-2.58-9.35,3.55,4.88,12.87-12.94-2.1L388.24,200l18.64,3,9.92,26.15-27.6-4.49L382.5,207l-9.35,3.55,4.65,12.26-13.59-2.21-1.6,9.87,13.59,2.21-8.3,10.16,7.75,6.32,11.95-14.63,27.6,4.49L397.51,260.7l-18.64-3-1.6,9.87,12.95,2.1-8.7,10.66,7.75,6.32,8.7-10.66,4.65,12.26,9.35-3.55L405.25,267l17.69-21.66,9.92,26.15-11.95,14.63,7.75,6.32L437,282.31l4.88,12.87,9.35-3.55-4.88-12.87,12.94,2.1,1.6-9.87-18.64-3-9.92-26.15,27.6,4.49,6.7,17.66,9.35-3.55-4.65-12.26,13.58,2.21,1.6-9.87-13.59-2.21,8.3-10.16-7.75-6.32L461.5,236.44,433.89,232l17.69-21.66,18.64,3,1.6-9.87-12.95-2.1,8.7-10.66-7.75-6.32L451.14,195l-4.65-12.26-9.35,3.55,6.7,17.66-17.69,21.66-9.92-26.15,11.95-14.63-7.75-6.32-8.29,10.16-4.88-12.87Z"/></g><path class="cls-7" d="M100.36,155.72l13.83,6.55a11.61,11.61,0,0,1,5.33,16.38h0a11.58,11.58,0,0,0,4.75,16.08l4,2.17a11.61,11.61,0,0,1,5.39,14.8l-4.76,11.14a11.57,11.57,0,0,0,4.66,14.37l6.93,4.37a11.57,11.57,0,0,1,4.51,14.7l-2.34,5a11.63,11.63,0,0,0,5.69,15.35l1.08.53a11.62,11.62,0,0,1,5.62,15.52l-1.24,2.57a11.63,11.63,0,0,0,5.76,15.59l3.78,1.79a11.63,11.63,0,0,1,5.72,15.66L163,344.7"/><path class="cls-7" d="M50.68,173,64,179.53a11.84,11.84,0,0,1,5.09,16.41h0a11.84,11.84,0,0,0,4.53,16.11l3.87,2.17a11.84,11.84,0,0,1,5.16,14.83L78,240.23a11.84,11.84,0,0,0,4.45,14.4L89.11,259a11.84,11.84,0,0,1,4.31,14.72l-2.26,5.05a11.84,11.84,0,0,0,5.44,15.38l1,.53A11.84,11.84,0,0,1,103,310.24l-1.2,2.58a11.84,11.84,0,0,0,5.5,15.62l3.63,1.79a11.84,11.84,0,0,1,5.47,15.68l-5.89,16.44"/><path d="M447.37,59.73l4.06,12.62,1.06,3.3,2.33-2.57,5.71-6.3,2.71,2.45-5.71,6.3-2.33,2.57,3.39.73,13,2.8-8.9,9.82L460.31,94l3.39.73L472,96.55l-.77,3.57-8.31-1.79-3.39-.73,1.06,3.3,4.06,12.62-13-2.8-3.39-.73,1.06,3.3,2.6,8.1-3.48,1.12-2.6-8.1-1.06-3.3-2.33,2.57-8.9,9.82-4.06-12.62-1.06-3.3-2.33,2.57-5.71,6.3L417.74,114l5.71-6.3,2.33-2.57-3.39-.73-13-2.8,8.9-9.83,2.33-2.57-3.39-.73L409,86.68l.77-3.57L418,84.9l3.39.73-1.06-3.3-4.06-12.62,13,2.8,3.39.73-1.06-3.3-2.6-8.1,3.48-1.12,2.6,8.1,1.06,3.3,2.33-2.57,8.9-9.83M441.26,88l2.33-2.57,5.3-5.84.78-.86-.35-1.1-2.41-7.51-1.06-3.3-2.33,2.57-5.3,5.84-.78.86.35,1.1,2.41,7.51,1.06,3.3m-3.48,1.12-1.06-3.3-2.41-7.51-.35-1.1L432.82,77l-7.71-1.66-3.39-.73,1.06,3.3,2.41,7.51.35,1.1,1.13.24,7.71,1.66,3.39.73m18.41,4,.78-.86,5.29-5.84,2.33-2.57-3.39-.73-7.71-1.66-1.13-.24-.78.86-5.29,5.84L444,90.5l3.39.73,7.71,1.66,1.13.24M428.61,102l.78-.86,5.3-5.84L437,92.73,433.62,92l-7.71-1.66-1.13-.24L424,91l-5.29,5.84-2.33,2.57,3.39.73,7.71,1.66,1.13.24m30.63,6.61-1.06-3.3-2.41-7.51-.35-1.1-1.13-.24-7.71-1.66-3.39-.73,1.06,3.3,2.41,7.51L447,106l1.13.24,7.71,1.66,3.39.73m-24.1,7.75,2.33-2.57,5.29-5.84.78-.86-.35-1.1-2.41-7.51-1.06-3.3-2.33,2.57-5.29,5.84-.78.86.35,1.1,2.41,7.51,1.06,3.3m13.07-60.53L437,68.22l-3.22-10-7.29,2.34,3.22,10L413.35,67l5.12,15.92L408.2,80.73l-1.61,7.48,10.27,2.22-11.23,12.39L422,106.35l-7.05,7.79,5.67,5.14,7.06-7.79,5.12,15.92L444,115l3.22,10,7.29-2.34-3.22-10,16.35,3.53-5.12-15.92,10.27,2.22L474.39,95,464.12,92.8l11.23-12.39L459,76.88l7.06-7.79L460.38,64l-7.05,7.79-5.12-15.92ZM442.1,84.14l-2.41-7.51,5.3-5.84,2.41,7.51-5.3,5.84Zm-7.29,2.34-7.71-1.66-2.41-7.51L432.4,79l2.41,7.51Zm20.67,4.46-7.71-1.66,5.29-5.84,7.71,1.66-5.29,5.84ZM427.9,99.8l-7.71-1.66,5.29-5.84L433.2,94l-5.3,5.84Zm28.37,6.12-7.71-1.66-2.41-7.51,7.71,1.66,2.41,7.51ZM436,112.45l-2.41-7.51,5.29-5.84,2.41,7.51L436,112.45Z"/><line class="cls-9" x1="286.2" y1="172.22" x2="272.86" y2="192.22"/><line class="cls-9" x1="306.86" y1="184.22" x2="275.86" y2="200.22"/><path class="cls-9" d="M245.36,160.72s-5,5,0,20,14,39,14,39"/><line class="cls-9" x1="279.96" y1="210.11" x2="302.36" y2="210.72"/><polyline class="cls-9" points="527.37 0.72 509.37 33.72 541.37 46.72 525.37 76.72 541.37 84.72"/><polyline class="cls-9" points="555.87 140.22 577.87 147.22 563.87 170.22 591.87 178.22"/></svg>
