<svg id="Layer_1" data-name="Layer 1" xmlns="http://www.w3.org/2000/svg" xmlns:xlink="http://www.w3.org/1999/xlink" viewBox="0 0 635.74 339.82"><defs><style>.cls-1,.cls-7,.cls-9{fill:none;}.cls-2{fill:#f5c157;}.cls-3{fill:#fb5a40;}.cls-4{fill:#96d8d7;}.cls-5{clip-path:url(#clip-path);}.cls-6{fill:#fc8b79;}.cls-7,.cls-9{stroke:#000;stroke-miterlimit:10;}.cls-7{stroke-width:4px;}.cls-8{clip-path:url(#clip-path-2);}.cls-9{stroke-width:3px;}</style><clipPath id="clip-path"><polygon class="cls-1" points="165.08 23.37 303.13 55.61 286.15 145.06 150.15 111.06 165.08 23.37"/></clipPath><clipPath id="clip-path-2"><polygon class="cls-1" points="163.08 23.37 301.13 55.61 284.15 145.06 148.15 111.06 163.08 23.37"/></clipPath></defs><title>cracker2</title><polyline class="cls-2" points="305.67 214.97 235.7 251.3 20.89 201.96 44.45 191.43 58.43 185.17 48.69 173.35 32.29 153.44 55.84 142.9 69.82 136.65 60.09 124.83 43.68 104.91 67.24 94.38 81.22 88.13 71.48 76.31 55.08 56.39 78.63 45.85 92.61 39.6 82.88 27.78 66.47 7.86 281.09 57.98 327.66 120.38"/><polyline class="cls-3" points="345.13 227.59 271.88 265.62 47.01 213.96 71.67 202.93 86.31 196.39 76.11 184.01 58.94 163.16 83.6 152.14 98.23 145.59 88.04 133.22 70.87 112.37 95.53 101.34 110.16 94.8 99.97 82.42 82.8 61.57 107.46 50.54 122.09 44 111.9 31.62 94.73 10.77 319.4 63.24 368.16 128.56"/><rect class="cls-3" x="429.69" y="114.39" width="184.43" height="207.7" rx="3" ry="3" transform="translate(980.1 550.02) rotate(-166.78)"/><rect class="cls-2" x="351.23" y="125.1" width="30.83" height="112.99" rx="15.42" ry="15.42" transform="translate(682.06 442.21) rotate(-166.78)"/><path class="cls-3" d="M391.71,134.13l61.58-37.18c1.08-.65,2.15.44,1.82,1.85L409.35,293.7c-.35,1.48-1.9,1.93-2.52.73L370.5,224a2,2,0,0,1-.14-1.35l20.51-87.33A2,2,0,0,1,391.71,134.13Z"/><line class="cls-3" x1="470.22" y1="311.84" x2="517.71" y2="109.65"/><line class="cls-3" x1="543.56" y1="329.12" x2="591.04" y2="126.92"/><line class="cls-3" x1="266.8" y1="264.07" x2="314.28" y2="61.88"/><rect class="cls-4" x="491.15" y="108.55" width="81.55" height="209.56" transform="translate(62.86 -115.95) rotate(13.22)"/><g class="cls-5"><polygon class="cls-4" points="282.89 83.34 279.76 73.84 261.82 79.75 240.96 61.13 267.53 52.37 281.62 64.95 288.28 57.5 278.49 48.76 291.56 44.45 288.44 34.96 275.36 39.26 278.04 26.42 268.25 24.39 264.4 42.88 237.83 51.63 243.54 24.25 261.48 18.34 258.35 8.84 245.89 12.94 248.7 -0.53 238.91 -2.57 236.1 10.9 226.32 2.17 219.66 9.63 233.75 22.21 228.04 49.59 207.19 30.96 211.04 12.47 201.25 10.43 198.57 23.27 188.31 14.1 181.65 21.56 191.91 30.73 179.46 34.83 182.58 44.33 200.53 38.42 221.38 57.05 194.82 65.8 180.73 53.22 174.07 60.67 183.85 69.41 170.78 73.72 173.91 83.21 186.98 78.91 184.31 91.75 194.1 93.79 197.95 75.3 224.51 66.54 218.81 93.92 200.87 99.83 204 109.33 216.46 105.23 213.65 118.7 223.44 120.74 226.25 107.27 236.03 116 242.69 108.54 228.6 95.96 234.3 68.58 255.16 87.21 251.31 105.7 261.1 107.74 263.77 94.9 274.04 104.07 280.7 96.61 270.44 87.44 282.89 83.34"/></g><path class="cls-6" d="M181,189.93l-12.32-11.31,10-3.15-2.29-7.3-10,3.15L170,155l-16,5,2.29-10.26-7.47-1.67-2.29,10.26L134.3,147l-3.64,16.32-7.74-7.11-5.18,5.64,7.74,7.11-16,5,12.31,11.31-10,3.15,2.29,7.3,10-3.15-3.64,16.32,16-5-2.29,10.26,7.47,1.67,2.29-10.26,12.32,11.31,3.64-16.32,7.74,7.11,5.18-5.64-7.74-7.11Zm-14.94-3.33L158.55,189l-5.81-5.34,7.52-2.36Zm-6.38-20.33L158,174l-7.52,2.36,1.72-7.7Zm-20.8-4.64,5.81,5.33-1.72,7.7-5.81-5.33Zm-14.42,15.7L132,175l5.81,5.33-7.52,2.36Zm6.38,20.33,1.72-7.7,7.52-2.36-1.72,7.7Zm20.8,4.64L145.85,197l1.72-7.7,5.81,5.33Z"/><polyline class="cls-7" points="344.06 220.11 270.8 258.14 45.94 206.48 70.59 195.46 85.23 188.91 75.04 176.54 57.86 155.69 82.52 144.66 97.16 138.11 86.97 125.74 69.79 104.89 94.45 93.86 109.09 87.31 98.89 74.94 81.72 54.09 106.38 43.06 121.02 36.52 110.82 24.14 93.65 3.29 318.33 55.76 367.08 121.08"/><rect class="cls-7" x="428.62" y="106.91" width="184.43" height="207.7" rx="3" ry="3" transform="translate(979.69 535.01) rotate(-166.78)"/><rect class="cls-7" x="350.15" y="117.63" width="30.83" height="112.99" rx="15.42" ry="15.42" transform="translate(681.65 427.2) rotate(-166.78)"/><path class="cls-7" d="M393.51,127.32,452.33,89.5c1-.66,2,.42,1.7,1.82l-45.77,194.9c-.35,1.48-1.83,1.95-2.4.76l-33.56-69.74a2.07,2.07,0,0,1-.11-1.35l20.51-87.33A2,2,0,0,1,393.51,127.32Z"/><line class="cls-7" x1="508.15" y1="316.37" x2="555.63" y2="114.17"/><line class="cls-7" x1="269.72" y1="256.59" x2="317.2" y2="54.4"/><g class="cls-8"><path d="M238.46-.2,244.33,1l-2.4,11.52-.71,3.39,3.29-1.08,10.56-3.48,1.88,5.7-16,5.29-1.1.36-.24,1.13-5.7,27.38-.71,3.39,3.29-1.08L263,44.78l1.1-.36.24-1.13,3.44-16.53L273.67,28l-2.27,10.88-.71,3.39L274,41.16l11.17-3.68,1.88,5.7-11.17,3.68-3.29,1.08,2.58,2.31,8.29,7.4-4,4.48-12.6-11.25-.86-.77-1.1.36-26.56,8.75L235,60.31l2.58,2.31,20.86,18.63.86.77,1.1-.36,16-5.28,1.88,5.7-10.56,3.48-3.29,1.08,2.58,2.31,8.77,7.84-4,4.48-8.77-7.84-2.58-2.31-.71,3.39-2.27,10.88-5.87-1.22,3.44-16.53.24-1.13-.86-.77L233.63,67.09l-2.58-2.31-.71,3.39-5.7,27.38-.24,1.13.86.77,12.6,11.25-4,4.48-8.29-7.4L223,103.47l-.71,3.39-2.4,11.52L214,117.15l2.4-11.52.71-3.39-3.29,1.08-10.56,3.48-1.88-5.7,16-5.29,1.1-.36.24-1.13L224.47,67l.71-3.39-3.29,1.08L195.33,73.4l-1.1.36L194,74.89l-3.44,16.53-5.87-1.22,2.27-10.88.71-3.39L184.36,77l-11.17,3.68L171.31,75l11.17-3.68,3.29-1.08-2.58-2.31-8.29-7.4,4-4.48,12.6,11.25.86.77,1.1-.36L220,58.95l3.29-1.08-2.58-2.31L199.86,36.93l-.86-.77-1.1.36-16,5.28L180,36.1l10.56-3.48,3.29-1.08-2.58-2.31-8.77-7.84,4-4.48,8.77,7.83,2.58,2.31.71-3.39,2.27-10.88L206.67,14l-3.44,16.53L203,31.68l.86.77,20.86,18.63,2.58,2.31L228,50l5.7-27.38.24-1.13-.86-.77L220.48,9.47l4-4.48,8.29,7.4,2.58,2.31.71-3.39L238.46-.2m-1.55-2.37L234.1,10.9l-9.78-8.74-6.66,7.46,14.09,12.58L226,49.59,205.19,31,209,12.47l-9.79-2-2.67,12.84L186.31,14.1l-6.66,7.46,10.27,9.17-12.46,4.1,3.13,9.5,17.94-5.91L219.38,57,192.82,65.8,178.73,53.22l-6.66,7.46,9.78,8.74-13.07,4.31,3.13,9.5L185,78.91l-2.68,12.84,9.79,2L196,75.29l26.56-8.75-5.7,27.38-17.94,5.91,3.13,9.5,12.46-4.1-2.81,13.47,9.79,2,2.81-13.47L234,116l6.66-7.46L226.6,96l5.7-27.38,20.86,18.63-3.85,18.49,9.79,2,2.67-12.84L272,104.07l6.66-7.46-10.27-9.17,12.46-4.1-3.13-9.5-17.94,5.91L239,61.12l26.56-8.75L279.61,65l6.66-7.46-9.78-8.74,13.07-4.31L286.44,35l-13.07,4.31L276,26.42l-9.79-2L262.4,42.88l-26.56,8.75,5.7-27.38,17.94-5.91-3.13-9.5-12.46,4.1L246.7-.53l-9.79-2Z"/></g><path class="cls-7" d="M537.73,322.28,529,309.74a12.47,12.47,0,0,1,3.61-17.59h0a12.48,12.48,0,0,0,4-17l-2.42-3.9A12.47,12.47,0,0,1,536.92,255l9.77-8a12.48,12.48,0,0,0,3.19-15.42L546,224.33a12.48,12.48,0,0,1,3.48-15.65l4.58-3.53a12.46,12.46,0,0,0,2.78-16.81l-.68-1a12.46,12.46,0,0,1,2.93-16.93l2.38-1.78a12.46,12.46,0,0,0,2.85-17.06L562,148.14A12.46,12.46,0,0,1,564.89,131l13.57-12.21"/><path class="cls-7" d="M493.63,311.46l-8.75-12.54a12.47,12.47,0,0,1,3.61-17.59h0a12.48,12.48,0,0,0,4-17l-2.42-3.9a12.47,12.47,0,0,1,2.76-16.17l9.77-8a12.48,12.48,0,0,0,3.19-15.42l-3.83-7.29a12.48,12.48,0,0,1,3.48-15.65l4.58-3.53a12.46,12.46,0,0,0,2.78-16.81l-.68-1A12.46,12.46,0,0,1,515,159.58l2.38-1.78a12.46,12.46,0,0,0,2.85-17.06l-2.39-3.43a12.46,12.46,0,0,1,2.91-17.11L534.35,108"/><path d="M150.42,150.47l3.57.79-1.85,8.3-.75,3.38,3.3-1,12.65-4-2.88,12.94-.75,3.38,3.31-1,8.12-2.55,1.09,3.49-8.12,2.55-3.3,1,2.55,2.34,9.77,9-12.65,4-3.3,1,2.55,2.34,6.26,5.75-2.47,2.69-6.26-5.75-2.55-2.34-.75,3.38L155,213.08l-9.77-9-2.55-2.34-.75,3.38-1.85,8.3-3.57-.79,1.85-8.3.75-3.38-3.3,1-12.65,4L126.09,193l.75-3.38-3.31,1-8.12,2.55-1.09-3.49,8.12-2.55,3.3-1-2.55-2.34-9.76-9,12.65-4,3.3-1-2.55-2.34-6.27-5.76,2.47-2.69,6.27,5.75,2.55,2.34.75-3.38,2.88-12.94,9.76,9,2.55,2.34.75-3.38,1.85-8.3m-6.24,28,.75-3.38,1.72-7.7.25-1.13-.85-.78-5.81-5.33-2.55-2.34-.75,3.38-1.72,7.7L135,170l.85.78,5.81,5.33,2.55,2.34m3.57.79,3.31-1,7.52-2.36,1.1-.35.25-1.13,1.72-7.7.75-3.38-3.3,1-7.52,2.36-1.1.35-.25,1.13-1.72,7.7-.75,3.38m-18,5.64,1.1-.35,7.52-2.36,3.3-1-2.55-2.34-5.81-5.33-.85-.78-1.1.35-7.52,2.36-3.3,1,2.55,2.34,5.81,5.33.85.78m28.27,6.3,1.1-.35,7.52-2.36,3.3-1-2.55-2.34-5.81-5.34-.85-.78-1.1.35-7.52,2.36-3.3,1,2.55,2.34,5.81,5.34.85.78m-29.9,9.39,3.3-1L139,197.2l1.1-.35.25-1.13L142,188l.75-3.38-3.31,1L132,188.05l-1.1.35-.25,1.13-1.72,7.7-.75,3.38m24.71,5.51.75-3.38,1.72-7.7.25-1.13-.85-.78-5.81-5.33-2.55-2.34-.75,3.38-1.72,7.7-.25,1.13.85.78,5.81,5.33,2.55,2.34M134.3,147l-3.64,16.32-7.74-7.11-5.18,5.64,7.74,7.11-16,5,12.31,11.31-10,3.15,2.29,7.3,10-3.15-3.64,16.32,16-5-2.29,10.26,7.47,1.67,2.29-10.26,12.32,11.31,3.64-16.32,7.74,7.11,5.18-5.64-7.74-7.11,16-5-12.32-11.31,10-3.15-2.29-7.3-10,3.15L170,155l-16,5,2.29-10.26-7.47-1.67-2.29,10.26L134.3,147ZM143,174.66l-5.81-5.33,1.72-7.7,5.81,5.33-1.72,7.7Zm7.47,1.67,1.72-7.7,7.52-2.36L158,174l-7.52,2.36Zm-20.17,6.33-5.81-5.33L132,175l5.81,5.33-7.52,2.36Zm28.27,6.3-5.81-5.34,7.52-2.36,5.81,5.34L158.55,189Zm-27.69,8.7,1.72-7.7,7.52-2.36-1.72,7.7-7.52,2.36Zm20.8,4.64L145.85,197l1.72-7.7,5.81,5.33-1.72,7.7Z"/><line class="cls-9" x1="327" y1="187.97" x2="349.34" y2="179.12"/><line class="cls-9" x1="318.19" y1="165.02" x2="352.79" y2="169.51"/><path class="cls-9" d="M354.61,218.52s6.93-1.42,11-16.69,9.8-40.26,9.8-40.26"/><line class="cls-9" x1="352.05" y1="157.05" x2="333.98" y2="143.79"/><polyline class="cls-9" points="56.65 133.56 23.65 148.56 48.65 179.56 0.65 202.56"/><polyline class="cls-9" points="49.61 63.55 40.63 51.53 80.66 35.59 65.68 18.57"/></svg>