<?xml version="1.0" encoding="utf-8"?>
<!-- Generator: Adobe Illustrator 21.1.0, SVG Export Plug-In . SVG Version: 6.00 Build 0)  -->
<svg version="1.1" id="Layer_10" xmlns="http://www.w3.org/2000/svg" xmlns:xlink="http://www.w3.org/1999/xlink" x="0px" y="0px"
	 viewBox="0 0 88.9 78.7" style="enable-background:new 0 0 88.9 78.7;" xml:space="preserve">
<path fill="#00DE91" d="M32,25.9c-3.6-7.2,1.9-13.5,1.9-13.5S16.5,14.2,10.2,1.6C16.5,14.2,4.7,27,4.7,27s8.3-0.6,11.9,6.6
	s-2.5,14-2.5,14c13.5-6,23,7.8,23,7.8s-5.3-16,7.6-23.1C44.6,32.3,35.6,33.1,32,25.9z"/>
<circle fill="#FB5A40" cx="32.9" cy="69" r="7.5"/>
<circle fill="none" stroke="#000000" stroke-width="2" stroke-miterlimit="10" cx="30.9" cy="67.1" r="7.5"/>
<circle fill="#FB5A40" cx="45.1" cy="54.1" r="5.3"/>
<circle fill="none" stroke="#000000" stroke-width="2" stroke-miterlimit="10" cx="43.7" cy="52.7" r="5.3"/>
<circle fill="#FB5A40" cx="53.3" cy="71.8" r="7"/>
<circle fill="none" stroke="#000000" stroke-width="2" stroke-miterlimit="10" cx="51.5" cy="69.9" r="7"/>
<path fill="none" stroke="#000000" stroke-width="2" stroke-miterlimit="10" d="M29.8,24.8c-3.6-7.2,1.9-13.5,1.9-13.5S14.3,13.1,8,0.4c6.3,12.6-5.5,25.5-5.5,25.5s8.3-0.6,11.9,6.6
	s-2.5,14-2.5,14c13.5-6,23,7.8,23,7.8s-5.3-16,7.6-23.1C42.5,31.2,33.4,32,29.8,24.8z"/>
<path fill="#00DE91" d="M75.9,44.3c4.4-4.9,10.8-2.7,10.8-2.7s-6.6-12.7,1.1-21.3c-7.7,8.6-21.1,3.6-21.1,3.6s3,6.1-1.4,11
	s-11.4,2.3-11.4,2.3c8.7,8.4,1.1,19.9,1.1,19.9s10.5-8.9,19.9-1.2C74.9,55.9,71.5,49.2,75.9,44.3z"/>
<path fill="none" stroke="#000000" stroke-width="2" stroke-miterlimit="10" d="M76,42.3c4.4-4.9,10.8-2.7,10.8-2.7s-6.6-12.7,1.1-21.3c-7.7,8.6-21.1,3.6-21.1,3.6s3,6.1-1.4,11
	s-11.4,2.3-11.4,2.3c8.7,8.4,1.1,19.9,1.1,19.9s10.5-8.9,19.9-1.2C75,53.8,71.6,47.2,76,42.3z"/>
</svg>
