<?xml version="1.0" encoding="utf-8"?>
<svg version="1.1" xmlns="http://www.w3.org/2000/svg" xmlns:xlink="http://www.w3.org/1999/xlink">
    <symbol id="holly">
        <path fill="#00DE91" d="M32,25.9c-3.6-7.2,1.9-13.5,1.9-13.5S16.5,14.2,10.2,1.6C16.5,14.2,4.7,27,4.7,27s8.3-0.6,11.9,6.6
        	s-2.5,14-2.5,14c13.5-6,23,7.8,23,7.8s-5.3-16,7.6-23.1C44.6,32.3,35.6,33.1,32,25.9z"/>
        <circle fill="#FB5A40" cx="32.9" cy="69" r="7.5"/>
        <circle fill="none" stroke="#000000" stroke-width="2" stroke-miterlimit="10" cx="30.9" cy="67.1" r="7.5"/>
        <circle fill="#FB5A40" cx="45.1" cy="54.1" r="5.3"/>
        <circle fill="none" stroke="#000000" stroke-width="2" stroke-miterlimit="10" cx="43.7" cy="52.7" r="5.3"/>
        <circle fill="#FB5A40" cx="53.3" cy="71.8" r="7"/>
        <circle fill="none" stroke="#000000" stroke-width="2" stroke-miterlimit="10" cx="51.5" cy="69.9" r="7"/>
        <path fill="none" stroke="#000000" stroke-width="2" stroke-miterlimit="10" d="M29.8,24.8c-3.6-7.2,1.9-13.5,1.9-13.5S14.3,13.1,8,0.4c6.3,12.6-5.5,25.5-5.5,25.5s8.3-0.6,11.9,6.6
        	s-2.5,14-2.5,14c13.5-6,23,7.8,23,7.8s-5.3-16,7.6-23.1C42.5,31.2,33.4,32,29.8,24.8z"/>
        <path fill="#00DE91" d="M75.9,44.3c4.4-4.9,10.8-2.7,10.8-2.7s-6.6-12.7,1.1-21.3c-7.7,8.6-21.1,3.6-21.1,3.6s3,6.1-1.4,11
        	s-11.4,2.3-11.4,2.3c8.7,8.4,1.1,19.9,1.1,19.9s10.5-8.9,19.9-1.2C74.9,55.9,71.5,49.2,75.9,44.3z"/>
        <path fill="none" stroke="#000000" stroke-width="2" stroke-miterlimit="10" d="M76,42.3c4.4-4.9,10.8-2.7,10.8-2.7s-6.6-12.7,1.1-21.3c-7.7,8.6-21.1,3.6-21.1,3.6s3,6.1-1.4,11
        	s-11.4,2.3-11.4,2.3c8.7,8.4,1.1,19.9,1.1,19.9s10.5-8.9,19.9-1.2C75,53.8,71.6,47.2,76,42.3z"/>
    </symbol>
    <symbol id="torchbox-logo" viewBox="0 0 244.2 57.1">
        <path d="M26 0s8.6 7.9-4 24.4c-11.4 14.8 2.8 37.2 16.4 32 0 0-3.5-4.3-4.6-9.2-2-9 2.3-12.1 6.3-15.3 3.8-2.9 9.5-9.4 3.7-18.6 0 0 .1 8-10.7 10.6.1 0 11.3-19-7.1-23.9z"></path>
        <path d="M23.8 55.4S3.5 52.1 6.3 31.5c1.1-8-3.5-10.7-6.3-12.6 0 0 16.1.6 14.9 10.5-1.8 16.4 5.4 23.6 8.9 26zm50.3-26.1h-7.2v21.4H63V29.3h-7.1v-3.6h18.5l-.3 3.6zm13.8 21.9c-6.4 0-10.2-4.1-10.2-13s3.8-13 10.2-13c6.4 0 10.2 4.1 10.2 13s-3.8 13-10.2 13zm0-22.5c-3.4 0-6.1 2.2-6.1 9.5 0 7.4 2.6 9.5 6.1 9.5 3.4 0 6.1-2.2 6.1-9.5s-2.7-9.5-6.1-9.5zM118 50.6l-5.2-9.2c-.8.1-1.5.1-2.4.1h-1.7v9.1h-3.9V25.7c1.4-.2 4.6-.5 7.3-.5 5.1 0 9.5 2.3 9.5 8.1 0 3.8-2 6.1-5.1 7.2l5.8 10.1H118zm-5.9-22.1c-1.1 0-2.3.1-3.3.2v9.6h1.9c3.8 0 6.9-1.1 6.9-5 0-3.6-2.9-4.8-5.5-4.8zm31 3.2c-1.3-2.4-3.1-3-5.3-3-4.3 0-6.4 3.6-6.4 9.5 0 6.2 2.2 9.5 6.5 9.5 1.8 0 3.6-.3 5.1-1l1.1 3.1c-2 .9-4.4 1.3-6.3 1.3-6.3 0-10.6-3.7-10.6-13 0-9.1 4.7-13 10.5-13 4.3 0 6.4 1.5 7.9 4.1l-2.5 2.5zm23.2 18.9V39.5h-11.2v11.1h-3.9V25.7h3.9V36h11.2V25.7h3.9v24.9h-3.9zm19.4.1c-1.8 0-5.6 0-7.2-.1V25.8c1.7-.4 5.2-.6 7.3-.6 4.6 0 8.8 1.5 8.8 6.5 0 2.3-1.1 4-2.8 5.2 2.4 1 4.1 2.9 4.1 6.3-.1 5.5-4.2 7.5-10.2 7.5zm-.3-22.2c-.8 0-2 .1-3 .2v7.2h3.9c.7 0 1.4 0 2 .1 1.5-.9 2.3-2.3 2.3-3.8-.1-2.9-2.3-3.7-5.2-3.7zm.6 10.6h-3.7v8.3c.9 0 2.2.1 3 .1 3.6 0 6.2-.8 6.2-4.2.1-3-2-4.2-5.5-4.2zm25.1 12.1c-6.4 0-10.2-4.1-10.2-13s3.8-13 10.2-13c6.4 0 10.2 4.1 10.2 13s-3.9 13-10.2 13zm0-22.5c-3.4 0-6.1 2.2-6.1 9.5 0 7.4 2.6 9.5 6.1 9.5 3.4 0 6.1-2.2 6.1-9.5s-2.7-9.5-6.1-9.5zm27.8 4.8l-3 4.4 3 4.6 5.2 8.1h-4.6L236 45l-2.2-3.6-2.3 3.6-3.6 5.6h-4.7l5.5-8.1 2.9-4.4-3-4.7-5.1-7.8h4.7l3.6 5.6 2 3.2 2-3.2 3.6-5.6h4.7l-5.2 7.9z"></path>
    </symbol>
</svg>
