<?xml version="1.0" encoding="utf-8"?>
<svg version="1.1" xmlns="http://www.w3.org/2000/svg" xmlns:xlink="http://www.w3.org/1999/xlink">
    <symbol id="holly">
        <path fill="#00DE91" d="M32,25.9c-3.6-7.2,1.9-13.5,1.9-13.5S16.5,14.2,10.2,1.6C16.5,14.2,4.7,27,4.7,27s8.3-0.6,11.9,6.6
        	s-2.5,14-2.5,14c13.5-6,23,7.8,23,7.8s-5.3-16,7.6-23.1C44.6,32.3,35.6,33.1,32,25.9z"/>
        <circle fill="#FB5A40" cx="32.9" cy="69" r="7.5"/>
        <circle fill="none" stroke="#000000" stroke-width="2" stroke-miterlimit="10" cx="30.9" cy="67.1" r="7.5"/>
        <circle fill="#FB5A40" cx="45.1" cy="54.1" r="5.3"/>
        <circle fill="none" stroke="#000000" stroke-width="2" stroke-miterlimit="10" cx="43.7" cy="52.7" r="5.3"/>
        <circle fill="#FB5A40" cx="53.3" cy="71.8" r="7"/>
        <circle fill="none" stroke="#000000" stroke-width="2" stroke-miterlimit="10" cx="51.5" cy="69.9" r="7"/>
        <path fill="none" stroke="#000000" stroke-width="2" stroke-miterlimit="10" d="M29.8,24.8c-3.6-7.2,1.9-13.5,1.9-13.5S14.3,13.1,8,0.4c6.3,12.6-5.5,25.5-5.5,25.5s8.3-0.6,11.9,6.6
        	s-2.5,14-2.5,14c13.5-6,23,7.8,23,7.8s-5.3-16,7.6-23.1C42.5,31.2,33.4,32,29.8,24.8z"/>
        <path fill="#00DE91" d="M75.9,44.3c4.4-4.9,10.8-2.7,10.8-2.7s-6.6-12.7,1.1-21.3c-7.7,8.6-21.1,3.6-21.1,3.6s3,6.1-1.4,11
        	s-11.4,2.3-11.4,2.3c8.7,8.4,1.1,19.9,1.1,19.9s10.5-8.9,19.9-1.2C74.9,55.9,71.5,49.2,75.9,44.3z"/>
        <path fill="none" stroke="#000000" stroke-width="2" stroke-miterlimit="10" d="M76,42.3c4.4-4.9,10.8-2.7,10.8-2.7s-6.6-12.7,1.1-21.3c-7.7,8.6-21.1,3.6-21.1,3.6s3,6.1-1.4,11
        	s-11.4,2.3-11.4,2.3c8.7,8.4,1.1,19.9,1.1,19.9s10.5-8.9,19.9-1.2C75,53.8,71.6,47.2,76,42.3z"/>
    </symbol>
    <symbol id="torchbox-logo" viewBox="0 0 244.2 57.1">
        <path d="M26 0s8.6 7.9-4 24.4c-11.4 14.8 2.8 37.2 16.4 32 0 0-3.5-4.3-4.6-9.2-2-9 2.3-12.1 6.3-15.3 3.8-2.9 9.5-9.4 3.7-18.6 0 0 .1 8-10.7 10.6.1 0 11.3-19-7.1-23.9z"></path>
        <path d="M23.8 55.4S3.5 52.1 6.3 31.5c1.1-8-3.5-10.7-6.3-12.6 0 0 16.1.6 14.9 10.5-1.8 16.4 5.4 23.6 8.9 26zm50.3-26.1h-7.2v21.4H63V29.3h-7.1v-3.6h18.5l-.3 3.6zm13.8 21.9c-6.4 0-10.2-4.1-10.2-13s3.8-13 10.2-13c6.4 0 10.2 4.1 10.2 13s-3.8 13-10.2 13zm0-22.5c-3.4 0-6.1 2.2-6.1 9.5 0 7.4 2.6 9.5 6.1 9.5 3.4 0 6.1-2.2 6.1-9.5s-2.7-9.5-6.1-9.5zM118 50.6l-5.2-9.2c-.8.1-1.5.1-2.4.1h-1.7v9.1h-3.9V25.7c1.4-.2 4.6-.5 7.3-.5 5.1 0 9.5 2.3 9.5 8.1 0 3.8-2 6.1-5.1 7.2l5.8 10.1H118zm-5.9-22.1c-1.1 0-2.3.1-3.3.2v9.6h1.9c3.8 0 6.9-1.1 6.9-5 0-3.6-2.9-4.8-5.5-4.8zm31 3.2c-1.3-2.4-3.1-3-5.3-3-4.3 0-6.4 3.6-6.4 9.5 0 6.2 2.2 9.5 6.5 9.5 1.8 0 3.6-.3 5.1-1l1.1 3.1c-2 .9-4.4 1.3-6.3 1.3-6.3 0-10.6-3.7-10.6-13 0-9.1 4.7-13 10.5-13 4.3 0 6.4 1.5 7.9 4.1l-2.5 2.5zm23.2 18.9V39.5h-11.2v11.1h-3.9V25.7h3.9V36h11.2V25.7h3.9v24.9h-3.9zm19.4.1c-1.8 0-5.6 0-7.2-.1V25.8c1.7-.4 5.2-.6 7.3-.6 4.6 0 8.8 1.5 8.8 6.5 0 2.3-1.1 4-2.8 5.2 2.4 1 4.1 2.9 4.1 6.3-.1 5.5-4.2 7.5-10.2 7.5zm-.3-22.2c-.8 0-2 .1-3 .2v7.2h3.9c.7 0 1.4 0 2 .1 1.5-.9 2.3-2.3 2.3-3.8-.1-2.9-2.3-3.7-5.2-3.7zm.6 10.6h-3.7v8.3c.9 0 2.2.1 3 .1 3.6 0 6.2-.8 6.2-4.2.1-3-2-4.2-5.5-4.2zm25.1 12.1c-6.4 0-10.2-4.1-10.2-13s3.8-13 10.2-13c6.4 0 10.2 4.1 10.2 13s-3.9 13-10.2 13zm0-22.5c-3.4 0-6.1 2.2-6.1 9.5 0 7.4 2.6 9.5 6.1 9.5 3.4 0 6.1-2.2 6.1-9.5s-2.7-9.5-6.1-9.5zm27.8 4.8l-3 4.4 3 4.6 5.2 8.1h-4.6L236 45l-2.2-3.6-2.3 3.6-3.6 5.6h-4.7l5.5-8.1 2.9-4.4-3-4.7-5.1-7.8h4.7l3.6 5.6 2 3.2 2-3.2 3.6-5.6h4.7l-5.2 7.9z"></path>
    </symbol>
    <symbol id="loading-cracker-left" viewBox="0 0 193.24 74">
        <path fill="#fb5a40" d="M58.37,74,80.72,53.36a7.42,7.42,0,0,0,14-.53L118.16,74h58.53L193.24,7H118.16L94.94,28A7.41,7.41,0,0,0,80.7,26.76L58.37,6H0V74Z"/>
        <rect fill="#96d8d7" x="15" y="7" width="28" height="66" transform="translate(58 80) rotate(180)"/>
        <rect fill="#f5c157" x="80" y="21" width="15" height="36" rx="7.42" ry="7.42"/>
        <polyline fill="none" stroke="#000000" stroke-miterlimit="10" stroke-width="4px" points="89.54 24.33 64.73 2 6 2 6 69 64.73 69 89.54 46.67"/>
        <line fill="none" stroke="#000000" stroke-miterlimit="10" stroke-width="4px" x1="65" y1="2" x2="65" y2="68"/>
        <line fill="none" stroke="#000000" stroke-miterlimit="10" stroke-width="4px" x1="124" y1="69" x2="124" y2="2"/>
        <line fill="none" stroke="#000000" stroke-miterlimit="10" stroke-width="4px" x1="48" y1="2" x2="48" y2="69"/>
        <line fill="none" stroke="#000000" stroke-miterlimit="10" stroke-width="4px" x1="22" y1="2" x2="22" y2="69"/>
        <path d="M93.58,21A3.43,3.43,0,0,1,97,24.42V45.58A3.43,3.43,0,0,1,93.58,49h-.16A3.43,3.43,0,0,1,90,45.58V24.42A3.43,3.43,0,0,1,93.42,21h.16m0-4h-.16A7.42,7.42,0,0,0,86,24.42V45.58A7.42,7.42,0,0,0,93.42,53h.16A7.42,7.42,0,0,0,101,45.58V24.42A7.42,7.42,0,0,0,93.58,17Z"/>
        <polyline fill="none" stroke="#000000" stroke-miterlimit="10" stroke-width="4px" points="169 69 124.46 69 99.72 46.73"/>
        <polyline fill="none" stroke="#000000" stroke-miterlimit="10" stroke-width="4px" points="99.72 24.27 124.46 2 186 2"/>
    </symbol>
    <symbol id="loading-cracker-right" viewBox="0 0 206 75">
        <path fill="#fb5a40" d="M139.63,7,117.28,27.64a7.42,7.42,0,0,0-14,.53L79.84,7H21.31L4.76,74H79.84l23.22-21a7.41,7.41,0,0,0,14.24,1.22L139.63,75H198V7Z"/>
        <rect fill="#96d8d7" x="155" y="8" width="28" height="66"/>
        <rect fill="#f5c157" x="103" y="24" width="15" height="36" rx="7.42" ry="7.42"/>
        <polyline fill="none" stroke="#000" stroke-miterlimit="10" stroke-width="4px" points="120.46 46.67 145.27 69 204 69 204 2 145.27 2 120.46 24.33"/>
        <line fill="none" stroke="#000" stroke-miterlimit="10" stroke-width="4px" x1="145" y1="69" x2="145" y2="3"/>
        <line fill="none" stroke="#000" stroke-miterlimit="10" stroke-width="4px" x1="86" y1="2" x2="86" y2="69"/>
        <line fill="none" stroke="#000" stroke-miterlimit="10" stroke-width="4px" x1="162" y1="69" x2="162" y2="2"/>
        <line fill="none" stroke="#000" stroke-miterlimit="10" stroke-width="4px" x1="188" y1="69" x2="188" y2="2"/>
        <path d="M116.58,22A3.43,3.43,0,0,1,120,25.42V46.58A3.43,3.43,0,0,1,116.58,50h-.16A3.43,3.43,0,0,1,113,46.58V25.42A3.43,3.43,0,0,1,116.42,22h.16m0-4h-.16A7.42,7.42,0,0,0,109,25.42V46.58A7.42,7.42,0,0,0,116.42,54h.16A7.42,7.42,0,0,0,124,46.58V25.42A7.42,7.42,0,0,0,116.58,18Z"/>
        <polyline fill="none" stroke="#000" stroke-miterlimit="10" stroke-width="4px" points="17 2 85.54 2 110.28 24.27"/>
        <polyline fill="none" stroke="#000" stroke-miterlimit="10" stroke-width="4px" points="110.28 46.73 85.54 69 0 69"/>
    </symbol>
    <symbol id="video-cracker-left" viewBox="0 0 602.53 379.5">
        <defs>
            <clipPath id="clip-path">
                <polygon fill="none" points="502.66 229.78 369.02 277.07 335.07 192.58 467.94 147.87 502.66 229.78"/>
            </clipPath>
            <clipPath id="clip-path-2">
                <polygon fill="none" points="499.48 230.06 365.75 277.13 331.96 192.58 464.9 148.1 499.48 230.06"/>
            </clipPath>
        </defs>
        <polyline fill="#f5c157" points="309.75 149.37 346.75 85.56 541.08 16.69 527.77 36.83 519.88 48.78 533.49 53.23 556.44 60.72 543.13 80.85 535.24 92.81 548.86 97.25 571.8 104.74 558.5 124.88 550.6 136.83 564.22 141.27 587.17 148.76 573.86 168.9 565.96 180.85 579.58 185.29 602.53 192.78 407.96 260.95 339.88 235.07"/>
        <polyline fill="#fb5a40" points="253.27 162.22 292.58 95.23 498.14 22.39 484.01 43.54 475.63 56.09 490 60.7 514.23 68.47 500.1 89.62 491.71 102.17 506.09 106.78 530.31 114.55 516.18 135.71 507.79 148.26 522.17 152.87 546.39 160.64 532.26 181.79 523.88 194.34 538.25 198.96 562.47 206.72 356.66 278.83 284.81 251.94"/>
        <rect fill="#fb5a40" x="27.9" y="161.91" width="176.92" height="194.29" rx="3" ry="3" transform="translate(-78.86 52.8) rotate(-19.24)"/><rect fill="#f5c157" x="244.96" y="156.47" width="28.84" height="105.69" rx="14.42" ry="14.42" transform="translate(-54.48 97.15) rotate(-19.24)"/>
        <path fill="#fb5a40" d="M261.38,260.08l-28,59.58c-.49,1-1.84.7-2.28-.58L169.4,142.27c-.47-1.34.48-2.46,1.54-1.81l62,38a1.92,1.92,0,0,1,.77,1l27.65,79.23A1.87,1.87,0,0,1,261.38,260.08Z"/><line fill="#fb5a40" x1="112.24" y1="158.5" x2="176.25" y2="341.94"/>
        <line fill="#fb5a40" x1="45.68" y1="181.67" x2="109.7" y2="365.11"/>
        <line fill="#fb5a40" x1="296.79" y1="94.1" x2="360.81" y2="277.54"/>
        <rect fill="#96d8d7" x="77.49" y="162.11" width="76.29" height="191.09" transform="translate(309.7 462.82) rotate(160.76)"/>
        <g clip-path="url(#clip-path)">
            <polygon fill="#96d8d7" points="371.1 242.8 378.86 249.11 390.78 234.46 418.39 238.9 400.74 260.59 382.09 257.6 380.5 267.47 393.45 269.55 384.77 280.23 392.52 286.54 401.21 275.86 405.88 288.12 415.23 284.56 408.5 266.9 426.15 245.21 436.11 271.34 424.19 286 431.95 292.31 440.22 282.13 445.13 294.99 454.47 291.43 449.57 278.57 462.52 280.65 464.1 270.78 445.45 267.78 435.49 241.65 463.11 246.09 469.83 263.74 479.18 260.18 474.51 247.92 488.09 250.11 489.68 240.23 476.09 238.05 484.37 227.88 476.61 221.56 464.69 236.22 437.08 231.78 454.73 210.08 473.38 213.08 474.97 203.21 462.02 201.13 470.7 190.45 462.95 184.14 454.26 194.82 449.59 182.56 440.25 186.12 446.97 203.77 429.32 225.47 419.36 199.33 431.28 184.68 423.52 178.37 415.25 188.54 410.35 175.68 401 179.25 405.9 192.11 392.96 190.02 391.37 199.9 410.02 202.9 419.98 229.03 392.37 224.59 385.64 206.94 376.3 210.5 380.97 222.76 367.38 220.57 365.79 230.44 379.38 232.63 371.1 242.8"/>
        </g>
        <path fill="#fc8b79" d="M475.35,80.41,459,76.88l7.06-7.79L460.38,64l-7.05,7.79-5.12-15.92L437,68.22l-3.22-10-7.29,2.34,3.22,10L413.35,67l5.12,15.92L408.2,80.73l-1.61,7.48,10.27,2.22-11.23,12.39L422,106.35l-7.05,7.79,5.67,5.14,7.06-7.79,5.12,15.92L444,115l3.22,10,7.29-2.34-3.22-10,16.35,3.53-5.12-15.92,10.27,2.22L474.39,95,464.12,92.8Zm-14.57,4.68-5.29,5.84-7.71-1.66,5.29-5.84ZM445,70.78l2.41,7.51-5.3,5.84-2.41-7.51Zm-20.29,6.52L432.4,79l2.41,7.51-7.71-1.66Zm-4.5,20.83,5.29-5.84L433.2,94l-5.3,5.84ZM436,112.45l-2.41-7.51,5.29-5.84,2.41,7.51Zm20.29-6.52-7.71-1.66-2.41-7.51,7.71,1.66Z"/>
        <rect stroke-width="4px" stroke="#000" stroke-miterlimit="10" fill="none" x="28.7" y="155.74" width="176.95" height="199.28" rx="3" ry="3" transform="translate(-76.41 51.73) rotate(-18.9)"/>
        <path stroke-width="4px" stroke="#000" stroke-miterlimit="10" fill="none" d="M262.81,257.45l-28.5,60.75c-.5,1.06-1.86.7-2.31-.61L169.76,135.86c-.47-1.38.49-2.51,1.56-1.84l62.85,39.55a2,2,0,0,1,.78,1L262.84,256A1.93,1.93,0,0,1,262.81,257.45Z"/><line stroke-width="4px" stroke="#000" stroke-miterlimit="10" fill="none" x1="147.59" y1="352.7" x2="83.04" y2="164.17"/>
        <polyline stroke-width="4px" stroke="#000" stroke-miterlimit="10" fill="none" points="255.67 155.91 295.8 87.64 504.88 14.91 490.47 36.45 481.91 49.23 496.51 54.09 521.1 62.27 506.69 83.81 498.13 96.6 512.73 101.45 537.32 109.64 522.9 131.18 514.35 143.96 528.95 148.82 553.54 157 539.12 178.54 530.57 191.33 545.16 196.18 569.76 204.37 360.41 276.34 287.47 248.12"/>
        <line stroke-width="4px" stroke="#000" stroke-miterlimit="10" fill="none" x1="296.71" y1="88.22" x2="361.27" y2="276.75"/>
        <rect stroke-width="4px" stroke="#000" stroke-miterlimit="10" fill="none" x="246.85" y="150.97" width="29.58" height="108.41" rx="14.79" ry="14.79" transform="translate(-52.36 95.83) rotate(-18.9)"/>
        <g clip-path="url(#clip-path-2)">
            <path d="M406.1,178.39l4.17,11,1.23,3.24,2.19-2.68,7-8.61,4.65,3.79-10.68,13.08-.73.89.41,1.08,9.92,26.15,1.23,3.24,2.19-2.68,17.69-21.66.73-.89-.41-1.08-6-15.79,5.61-2.13,3.94,10.39L450.5,199l2.19-2.68,7.44-9.11,4.65,3.79-7.44,9.11-2.19,2.68,3.42.56,11,1.78-1,5.92-16.67-2.71-1.14-.19L450,209l-17.69,21.66-2.19,2.68,3.42.56,27.6,4.49,1.14.19.73-.89,10.68-13.08,4.65,3.79-7,8.61-2.19,2.68,3.42.56,11.61,1.89-1,5.92-11.61-1.89-3.42-.56,1.23,3.24,3.94,10.39-5.61,2.13-6-15.79-.41-1.08-1.14-.19-27.6-4.49-3.42-.56,1.23,3.24,9.92,26.15.41,1.08,1.14.19,16.67,2.71-1,5.92-11-1.78-3.42-.56,1.23,3.24,4.17,11L443,292.6l-4.17-11-1.23-3.24L435.4,281l-7,8.61-4.65-3.79,10.68-13.08.73-.89-.41-1.08-9.92-26.15-1.23-3.24-2.19,2.68L403.7,265.76l-.73.89.41,1.08,6,15.79-5.61,2.13-3.94-10.39L398.59,272l-2.19,2.68L389,283.82,384.31,280l7.44-9.11,2.19-2.68-3.42-.56-11-1.78,1-5.92,16.67,2.71,1.14.19.73-.89,17.69-21.66,2.19-2.68-3.42-.56-27.6-4.49-1.14-.19-.73.89-10.68,13.08-4.65-3.79,7-8.61,2.19-2.68-3.42-.56-11.61-1.89,1-5.92,11.61,1.89,3.42.56-1.23-3.24-3.94-10.39,5.61-2.13,6,15.79.41,1.08,1.14.19,27.6,4.49,3.42.56-1.23-3.24-9.92-26.15-.41-1.08L407.2,201l-16.67-2.71,1-5.92,11,1.78,3.42.56-1.23-3.24-4.17-11,5.61-2.13m1.16-2.58-9.35,3.55,4.88,12.87-12.94-2.1L388.24,200l18.64,3,9.92,26.15-27.6-4.49L382.5,207l-9.35,3.55,4.65,12.26-13.59-2.21-1.6,9.87,13.59,2.21-8.3,10.16,7.75,6.32,11.95-14.63,27.6,4.49L397.51,260.7l-18.64-3-1.6,9.87,12.95,2.1-8.7,10.66,7.75,6.32,8.7-10.66,4.65,12.26,9.35-3.55L405.25,267l17.69-21.66,9.92,26.15-11.95,14.63,7.75,6.32L437,282.31l4.88,12.87,9.35-3.55-4.88-12.87,12.94,2.1,1.6-9.87-18.64-3-9.92-26.15,27.6,4.49,6.7,17.66,9.35-3.55-4.65-12.26,13.58,2.21,1.6-9.87-13.59-2.21,8.3-10.16-7.75-6.32L461.5,236.44,433.89,232l17.69-21.66,18.64,3,1.6-9.87-12.95-2.1,8.7-10.66-7.75-6.32L451.14,195l-4.65-12.26-9.35,3.55,6.7,17.66-17.69,21.66-9.92-26.15,11.95-14.63-7.75-6.32-8.29,10.16-4.88-12.87Z"/>
        </g>
        <path stroke-width="4px" stroke="#000" stroke-miterlimit="10" fill="none" d="M100.36,155.72l13.83,6.55a11.61,11.61,0,0,1,5.33,16.38h0a11.58,11.58,0,0,0,4.75,16.08l4,2.17a11.61,11.61,0,0,1,5.39,14.8l-4.76,11.14a11.57,11.57,0,0,0,4.66,14.37l6.93,4.37a11.57,11.57,0,0,1,4.51,14.7l-2.34,5a11.63,11.63,0,0,0,5.69,15.35l1.08.53a11.62,11.62,0,0,1,5.62,15.52l-1.24,2.57a11.63,11.63,0,0,0,5.76,15.59l3.78,1.79a11.63,11.63,0,0,1,5.72,15.66L163,344.7"/>
        <path stroke-width="4px" stroke="#000" stroke-miterlimit="10" fill="none" d="M50.68,173,64,179.53a11.84,11.84,0,0,1,5.09,16.41h0a11.84,11.84,0,0,0,4.53,16.11l3.87,2.17a11.84,11.84,0,0,1,5.16,14.83L78,240.23a11.84,11.84,0,0,0,4.45,14.4L89.11,259a11.84,11.84,0,0,1,4.31,14.72l-2.26,5.05a11.84,11.84,0,0,0,5.44,15.38l1,.53A11.84,11.84,0,0,1,103,310.24l-1.2,2.58a11.84,11.84,0,0,0,5.5,15.62l3.63,1.79a11.84,11.84,0,0,1,5.47,15.68l-5.89,16.44"/>
        <path d="M447.37,59.73l4.06,12.62,1.06,3.3,2.33-2.57,5.71-6.3,2.71,2.45-5.71,6.3-2.33,2.57,3.39.73,13,2.8-8.9,9.82L460.31,94l3.39.73L472,96.55l-.77,3.57-8.31-1.79-3.39-.73,1.06,3.3,4.06,12.62-13-2.8-3.39-.73,1.06,3.3,2.6,8.1-3.48,1.12-2.6-8.1-1.06-3.3-2.33,2.57-8.9,9.82-4.06-12.62-1.06-3.3-2.33,2.57-5.71,6.3L417.74,114l5.71-6.3,2.33-2.57-3.39-.73-13-2.8,8.9-9.83,2.33-2.57-3.39-.73L409,86.68l.77-3.57L418,84.9l3.39.73-1.06-3.3-4.06-12.62,13,2.8,3.39.73-1.06-3.3-2.6-8.1,3.48-1.12,2.6,8.1,1.06,3.3,2.33-2.57,8.9-9.83M441.26,88l2.33-2.57,5.3-5.84.78-.86-.35-1.1-2.41-7.51-1.06-3.3-2.33,2.57-5.3,5.84-.78.86.35,1.1,2.41,7.51,1.06,3.3m-3.48,1.12-1.06-3.3-2.41-7.51-.35-1.1L432.82,77l-7.71-1.66-3.39-.73,1.06,3.3,2.41,7.51.35,1.1,1.13.24,7.71,1.66,3.39.73m18.41,4,.78-.86,5.29-5.84,2.33-2.57-3.39-.73-7.71-1.66-1.13-.24-.78.86-5.29,5.84L444,90.5l3.39.73,7.71,1.66,1.13.24M428.61,102l.78-.86,5.3-5.84L437,92.73,433.62,92l-7.71-1.66-1.13-.24L424,91l-5.29,5.84-2.33,2.57,3.39.73,7.71,1.66,1.13.24m30.63,6.61-1.06-3.3-2.41-7.51-.35-1.1-1.13-.24-7.71-1.66-3.39-.73,1.06,3.3,2.41,7.51L447,106l1.13.24,7.71,1.66,3.39.73m-24.1,7.75,2.33-2.57,5.29-5.84.78-.86-.35-1.1-2.41-7.51-1.06-3.3-2.33,2.57-5.29,5.84-.78.86.35,1.1,2.41,7.51,1.06,3.3m13.07-60.53L437,68.22l-3.22-10-7.29,2.34,3.22,10L413.35,67l5.12,15.92L408.2,80.73l-1.61,7.48,10.27,2.22-11.23,12.39L422,106.35l-7.05,7.79,5.67,5.14,7.06-7.79,5.12,15.92L444,115l3.22,10,7.29-2.34-3.22-10,16.35,3.53-5.12-15.92,10.27,2.22L474.39,95,464.12,92.8l11.23-12.39L459,76.88l7.06-7.79L460.38,64l-7.05,7.79-5.12-15.92ZM442.1,84.14l-2.41-7.51,5.3-5.84,2.41,7.51-5.3,5.84Zm-7.29,2.34-7.71-1.66-2.41-7.51L432.4,79l2.41,7.51Zm20.67,4.46-7.71-1.66,5.29-5.84,7.71,1.66-5.29,5.84ZM427.9,99.8l-7.71-1.66,5.29-5.84L433.2,94l-5.3,5.84Zm28.37,6.12-7.71-1.66-2.41-7.51,7.71,1.66,2.41,7.51ZM436,112.45l-2.41-7.51,5.29-5.84,2.41,7.51L436,112.45Z"/>
        <line stroke-width="3px" stroke="#000" stroke-miterlimit="10" fill="none" x1="286.2" y1="172.22" x2="272.86" y2="192.22"/>
        <line stroke-width="3px" stroke="#000" stroke-miterlimit="10" fill="none" x1="306.86" y1="184.22" x2="275.86" y2="200.22"/>
        <path stroke-width="3px" stroke="#000" stroke-miterlimit="10" fill="none" d="M245.36,160.72s-5,5,0,20,14,39,14,39"/>
        <line stroke-width="3px" stroke="#000" stroke-miterlimit="10" fill="none" x1="279.96" y1="210.11" x2="302.36" y2="210.72"/>
        <polyline stroke-width="3px" stroke="#000" stroke-miterlimit="10" fill="none" points="527.37 0.72 509.37 33.72 541.37 46.72 525.37 76.72 541.37 84.72"/>
        <polyline stroke-width="3px" stroke="#000" stroke-miterlimit="10" fill="none" points="555.87 140.22 577.87 147.22 563.87 170.22 591.87 178.22"/>
    </symbol>
    <symbol id="video-cracker-right" viewBox="0 0 635.74 339.82">
        <defs>
            <clipPath id="clip-path">
                <polygon fill="none" points="165.08 23.37 303.13 55.61 286.15 145.06 150.15 111.06 165.08 23.37"/>#
            </clipPath>
            <clipPath id="clip-path-2">
                <polygon fill="none" points="163.08 23.37 301.13 55.61 284.15 145.06 148.15 111.06 163.08 23.37"/>
            </clipPath>
        </defs>
        <polyline fill="#f5c157" points="305.67 214.97 235.7 251.3 20.89 201.96 44.45 191.43 58.43 185.17 48.69 173.35 32.29 153.44 55.84 142.9 69.82 136.65 60.09 124.83 43.68 104.91 67.24 94.38 81.22 88.13 71.48 76.31 55.08 56.39 78.63 45.85 92.61 39.6 82.88 27.78 66.47 7.86 281.09 57.98 327.66 120.38"/>
        <polyline fill="#fb5a40" points="345.13 227.59 271.88 265.62 47.01 213.96 71.67 202.93 86.31 196.39 76.11 184.01 58.94 163.16 83.6 152.14 98.23 145.59 88.04 133.22 70.87 112.37 95.53 101.34 110.16 94.8 99.97 82.42 82.8 61.57 107.46 50.54 122.09 44 111.9 31.62 94.73 10.77 319.4 63.24 368.16 128.56"/>
        <rect fill="#fb5a40" x="429.69" y="114.39" width="184.43" height="207.7" rx="3" ry="3" transform="translate(980.1 550.02) rotate(-166.78)"/><rect fill="#f5c157" x="351.23" y="125.1" width="30.83" height="112.99" rx="15.42" ry="15.42" transform="translate(682.06 442.21) rotate(-166.78)"/>
        <path fill="#fb5a40" d="M391.71,134.13l61.58-37.18c1.08-.65,2.15.44,1.82,1.85L409.35,293.7c-.35,1.48-1.9,1.93-2.52.73L370.5,224a2,2,0,0,1-.14-1.35l20.51-87.33A2,2,0,0,1,391.71,134.13Z"/><line fill="#fb5a40" x1="470.22" y1="311.84" x2="517.71" y2="109.65"/>
        <line fill="#fb5a40" x1="543.56" y1="329.12" x2="591.04" y2="126.92"/>
        <line fill="#fb5a40" x1="266.8" y1="264.07" x2="314.28" y2="61.88"/>
        <rect fill="#96d8d7" x="491.15" y="108.55" width="81.55" height="209.56" transform="translate(62.86 -115.95) rotate(13.22)"/>
        <g clip-path="url(#clip-path)">
            <polygon fill="#96d8d7" points="282.89 83.34 279.76 73.84 261.82 79.75 240.96 61.13 267.53 52.37 281.62 64.95 288.28 57.5 278.49 48.76 291.56 44.45 288.44 34.96 275.36 39.26 278.04 26.42 268.25 24.39 264.4 42.88 237.83 51.63 243.54 24.25 261.48 18.34 258.35 8.84 245.89 12.94 248.7 -0.53 238.91 -2.57 236.1 10.9 226.32 2.17 219.66 9.63 233.75 22.21 228.04 49.59 207.19 30.96 211.04 12.47 201.25 10.43 198.57 23.27 188.31 14.1 181.65 21.56 191.91 30.73 179.46 34.83 182.58 44.33 200.53 38.42 221.38 57.05 194.82 65.8 180.73 53.22 174.07 60.67 183.85 69.41 170.78 73.72 173.91 83.21 186.98 78.91 184.31 91.75 194.1 93.79 197.95 75.3 224.51 66.54 218.81 93.92 200.87 99.83 204 109.33 216.46 105.23 213.65 118.7 223.44 120.74 226.25 107.27 236.03 116 242.69 108.54 228.6 95.96 234.3 68.58 255.16 87.21 251.31 105.7 261.1 107.74 263.77 94.9 274.04 104.07 280.7 96.61 270.44 87.44 282.89 83.34"/>
        </g>
        <path fill="#fc8b79" d="M181,189.93l-12.32-11.31,10-3.15-2.29-7.3-10,3.15L170,155l-16,5,2.29-10.26-7.47-1.67-2.29,10.26L134.3,147l-3.64,16.32-7.74-7.11-5.18,5.64,7.74,7.11-16,5,12.31,11.31-10,3.15,2.29,7.3,10-3.15-3.64,16.32,16-5-2.29,10.26,7.47,1.67,2.29-10.26,12.32,11.31,3.64-16.32,7.74,7.11,5.18-5.64-7.74-7.11Zm-14.94-3.33L158.55,189l-5.81-5.34,7.52-2.36Zm-6.38-20.33L158,174l-7.52,2.36,1.72-7.7Zm-20.8-4.64,5.81,5.33-1.72,7.7-5.81-5.33Zm-14.42,15.7L132,175l5.81,5.33-7.52,2.36Zm6.38,20.33,1.72-7.7,7.52-2.36-1.72,7.7Zm20.8,4.64L145.85,197l1.72-7.7,5.81,5.33Z"/>
        <polyline stroke-width="4px" stroke="#000" stroke-miterlimit="10" fill="none" points="344.06 220.11 270.8 258.14 45.94 206.48 70.59 195.46 85.23 188.91 75.04 176.54 57.86 155.69 82.52 144.66 97.16 138.11 86.97 125.74 69.79 104.89 94.45 93.86 109.09 87.31 98.89 74.94 81.72 54.09 106.38 43.06 121.02 36.52 110.82 24.14 93.65 3.29 318.33 55.76 367.08 121.08"/>
        <rect stroke-width="4px" stroke="#000" stroke-miterlimit="10" fill="none" x="428.62" y="106.91" width="184.43" height="207.7" rx="3" ry="3" transform="translate(979.69 535.01) rotate(-166.78)"/>
        <rect stroke-width="4px" stroke="#000" stroke-miterlimit="10" fill="none" x="350.15" y="117.63" width="30.83" height="112.99" rx="15.42" ry="15.42" transform="translate(681.65 427.2) rotate(-166.78)"/>
        <path stroke-width="4px" stroke="#000" stroke-miterlimit="10" fill="none" d="M393.51,127.32,452.33,89.5c1-.66,2,.42,1.7,1.82l-45.77,194.9c-.35,1.48-1.83,1.95-2.4.76l-33.56-69.74a2.07,2.07,0,0,1-.11-1.35l20.51-87.33A2,2,0,0,1,393.51,127.32Z"/>
        <line stroke-width="4px" stroke="#000" stroke-miterlimit="10" fill="none" x1="508.15" y1="316.37" x2="555.63" y2="114.17"/>
        <line stroke-width="4px" stroke="#000" stroke-miterlimit="10" fill="none" x1="269.72" y1="256.59" x2="317.2" y2="54.4"/>
        <g clip-path="url(#clip-path-2)">
            <path d="M238.46-.2,244.33,1l-2.4,11.52-.71,3.39,3.29-1.08,10.56-3.48,1.88,5.7-16,5.29-1.1.36-.24,1.13-5.7,27.38-.71,3.39,3.29-1.08L263,44.78l1.1-.36.24-1.13,3.44-16.53L273.67,28l-2.27,10.88-.71,3.39L274,41.16l11.17-3.68,1.88,5.7-11.17,3.68-3.29,1.08,2.58,2.31,8.29,7.4-4,4.48-12.6-11.25-.86-.77-1.1.36-26.56,8.75L235,60.31l2.58,2.31,20.86,18.63.86.77,1.1-.36,16-5.28,1.88,5.7-10.56,3.48-3.29,1.08,2.58,2.31,8.77,7.84-4,4.48-8.77-7.84-2.58-2.31-.71,3.39-2.27,10.88-5.87-1.22,3.44-16.53.24-1.13-.86-.77L233.63,67.09l-2.58-2.31-.71,3.39-5.7,27.38-.24,1.13.86.77,12.6,11.25-4,4.48-8.29-7.4L223,103.47l-.71,3.39-2.4,11.52L214,117.15l2.4-11.52.71-3.39-3.29,1.08-10.56,3.48-1.88-5.7,16-5.29,1.1-.36.24-1.13L224.47,67l.71-3.39-3.29,1.08L195.33,73.4l-1.1.36L194,74.89l-3.44,16.53-5.87-1.22,2.27-10.88.71-3.39L184.36,77l-11.17,3.68L171.31,75l11.17-3.68,3.29-1.08-2.58-2.31-8.29-7.4,4-4.48,12.6,11.25.86.77,1.1-.36L220,58.95l3.29-1.08-2.58-2.31L199.86,36.93l-.86-.77-1.1.36-16,5.28L180,36.1l10.56-3.48,3.29-1.08-2.58-2.31-8.77-7.84,4-4.48,8.77,7.83,2.58,2.31.71-3.39,2.27-10.88L206.67,14l-3.44,16.53L203,31.68l.86.77,20.86,18.63,2.58,2.31L228,50l5.7-27.38.24-1.13-.86-.77L220.48,9.47l4-4.48,8.29,7.4,2.58,2.31.71-3.39L238.46-.2m-1.55-2.37L234.1,10.9l-9.78-8.74-6.66,7.46,14.09,12.58L226,49.59,205.19,31,209,12.47l-9.79-2-2.67,12.84L186.31,14.1l-6.66,7.46,10.27,9.17-12.46,4.1,3.13,9.5,17.94-5.91L219.38,57,192.82,65.8,178.73,53.22l-6.66,7.46,9.78,8.74-13.07,4.31,3.13,9.5L185,78.91l-2.68,12.84,9.79,2L196,75.29l26.56-8.75-5.7,27.38-17.94,5.91,3.13,9.5,12.46-4.1-2.81,13.47,9.79,2,2.81-13.47L234,116l6.66-7.46L226.6,96l5.7-27.38,20.86,18.63-3.85,18.49,9.79,2,2.67-12.84L272,104.07l6.66-7.46-10.27-9.17,12.46-4.1-3.13-9.5-17.94,5.91L239,61.12l26.56-8.75L279.61,65l6.66-7.46-9.78-8.74,13.07-4.31L286.44,35l-13.07,4.31L276,26.42l-9.79-2L262.4,42.88l-26.56,8.75,5.7-27.38,17.94-5.91-3.13-9.5-12.46,4.1L246.7-.53l-9.79-2Z"/>
        </g>
        <path stroke-width="4px" stroke="#000" stroke-miterlimit="10" fill="none" d="M537.73,322.28,529,309.74a12.47,12.47,0,0,1,3.61-17.59h0a12.48,12.48,0,0,0,4-17l-2.42-3.9A12.47,12.47,0,0,1,536.92,255l9.77-8a12.48,12.48,0,0,0,3.19-15.42L546,224.33a12.48,12.48,0,0,1,3.48-15.65l4.58-3.53a12.46,12.46,0,0,0,2.78-16.81l-.68-1a12.46,12.46,0,0,1,2.93-16.93l2.38-1.78a12.46,12.46,0,0,0,2.85-17.06L562,148.14A12.46,12.46,0,0,1,564.89,131l13.57-12.21"/>
        <path stroke-width="4px" stroke="#000" stroke-miterlimit="10" fill="none" d="M493.63,311.46l-8.75-12.54a12.47,12.47,0,0,1,3.61-17.59h0a12.48,12.48,0,0,0,4-17l-2.42-3.9a12.47,12.47,0,0,1,2.76-16.17l9.77-8a12.48,12.48,0,0,0,3.19-15.42l-3.83-7.29a12.48,12.48,0,0,1,3.48-15.65l4.58-3.53a12.46,12.46,0,0,0,2.78-16.81l-.68-1A12.46,12.46,0,0,1,515,159.58l2.38-1.78a12.46,12.46,0,0,0,2.85-17.06l-2.39-3.43a12.46,12.46,0,0,1,2.91-17.11L534.35,108"/>
        <path d="M150.42,150.47l3.57.79-1.85,8.3-.75,3.38,3.3-1,12.65-4-2.88,12.94-.75,3.38,3.31-1,8.12-2.55,1.09,3.49-8.12,2.55-3.3,1,2.55,2.34,9.77,9-12.65,4-3.3,1,2.55,2.34,6.26,5.75-2.47,2.69-6.26-5.75-2.55-2.34-.75,3.38L155,213.08l-9.77-9-2.55-2.34-.75,3.38-1.85,8.3-3.57-.79,1.85-8.3.75-3.38-3.3,1-12.65,4L126.09,193l.75-3.38-3.31,1-8.12,2.55-1.09-3.49,8.12-2.55,3.3-1-2.55-2.34-9.76-9,12.65-4,3.3-1-2.55-2.34-6.27-5.76,2.47-2.69,6.27,5.75,2.55,2.34.75-3.38,2.88-12.94,9.76,9,2.55,2.34.75-3.38,1.85-8.3m-6.24,28,.75-3.38,1.72-7.7.25-1.13-.85-.78-5.81-5.33-2.55-2.34-.75,3.38-1.72,7.7L135,170l.85.78,5.81,5.33,2.55,2.34m3.57.79,3.31-1,7.52-2.36,1.1-.35.25-1.13,1.72-7.7.75-3.38-3.3,1-7.52,2.36-1.1.35-.25,1.13-1.72,7.7-.75,3.38m-18,5.64,1.1-.35,7.52-2.36,3.3-1-2.55-2.34-5.81-5.33-.85-.78-1.1.35-7.52,2.36-3.3,1,2.55,2.34,5.81,5.33.85.78m28.27,6.3,1.1-.35,7.52-2.36,3.3-1-2.55-2.34-5.81-5.34-.85-.78-1.1.35-7.52,2.36-3.3,1,2.55,2.34,5.81,5.34.85.78m-29.9,9.39,3.3-1L139,197.2l1.1-.35.25-1.13L142,188l.75-3.38-3.31,1L132,188.05l-1.1.35-.25,1.13-1.72,7.7-.75,3.38m24.71,5.51.75-3.38,1.72-7.7.25-1.13-.85-.78-5.81-5.33-2.55-2.34-.75,3.38-1.72,7.7-.25,1.13.85.78,5.81,5.33,2.55,2.34M134.3,147l-3.64,16.32-7.74-7.11-5.18,5.64,7.74,7.11-16,5,12.31,11.31-10,3.15,2.29,7.3,10-3.15-3.64,16.32,16-5-2.29,10.26,7.47,1.67,2.29-10.26,12.32,11.31,3.64-16.32,7.74,7.11,5.18-5.64-7.74-7.11,16-5-12.32-11.31,10-3.15-2.29-7.3-10,3.15L170,155l-16,5,2.29-10.26-7.47-1.67-2.29,10.26L134.3,147ZM143,174.66l-5.81-5.33,1.72-7.7,5.81,5.33-1.72,7.7Zm7.47,1.67,1.72-7.7,7.52-2.36L158,174l-7.52,2.36Zm-20.17,6.33-5.81-5.33L132,175l5.81,5.33-7.52,2.36Zm28.27,6.3-5.81-5.34,7.52-2.36,5.81,5.34L158.55,189Zm-27.69,8.7,1.72-7.7,7.52-2.36-1.72,7.7-7.52,2.36Zm20.8,4.64L145.85,197l1.72-7.7,5.81,5.33-1.72,7.7Z"/>
        <line stroke-width="3px" stroke="#000" stroke-miterlimit="10" fill="none" x1="327" y1="187.97" x2="349.34" y2="179.12"/>
        <line stroke-width="3px" stroke="#000" stroke-miterlimit="10" fill="none" x1="318.19" y1="165.02" x2="352.79" y2="169.51"/>
        <path stroke-width="3px" stroke="#000" stroke-miterlimit="10" fill="none" d="M354.61,218.52s6.93-1.42,11-16.69,9.8-40.26,9.8-40.26"/>
        <line stroke-width="3px" stroke="#000" stroke-miterlimit="10" fill="none" x1="352.05" y1="157.05" x2="333.98" y2="143.79"/>
        <polyline stroke-width="3px" stroke="#000" stroke-miterlimit="10" fill="none" points="56.65 133.56 23.65 148.56 48.65 179.56 0.65 202.56"/>
        <polyline stroke-width="3px" stroke="#000" stroke-miterlimit="10" fill="none" points="49.61 63.55 40.63 51.53 80.66 35.59 65.68 18.57"/>
    </symbol>
</svg>
